<svg width="80" height="80" viewBox="0 0 80 80" fill="none" xmlns="http://www.w3.org/2000/svg">
<rect width="80" height="80" rx="10" fill="#BED133"/>
<path d="M49.9181 21.9178L24.1611 21.9178C21.9519 21.9178 20.1689 23.7087 20.1689 25.9178V26.6851C20.1689 28.8942 21.9517 30.6851 24.1608 30.6851C30.9322 30.6852 44.1553 30.6852 46.3885 30.6851C49.0313 30.6849 49.3655 33.1937 49.4078 33.8282C49.4142 33.9245 49.4175 34.0209 49.4242 34.1172C49.4736 34.8231 49.4886 35.279 49.4309 35.974C49.4204 36.1008 49.4145 36.2266 49.4045 36.3534C49.3496 37.0526 48.9731 39.4521 46.3885 39.4521H24.1609C21.9517 39.4521 20.1689 41.2429 20.1689 43.4521V54.0822C20.1689 56.2913 21.9598 58.0822 24.1689 58.0822H26.2534C28.4625 58.0822 30.2534 56.2913 30.2534 54.0822V52.2193C30.2534 50.0102 32.0433 48.2193 34.2524 48.2193H49.9181C58.4159 48.2193 59.4804 39.6028 59.4981 39.454L59.4992 39.445C59.9563 35.587 59.9127 33.474 59.5086 30.7538C59.5018 30.7083 59.4965 30.6678 59.49 30.6222C59.3793 29.8348 58.0636 21.9178 49.9181 21.9178Z" fill="black"/>
</svg>
